<?xml version="1.0" standalone="no"?>
<!DOCTYPE svg PUBLIC "-//W3C//DTD SVG 20010904//EN"
 "http://www.w3.org/TR/2001/REC-SVG-20010904/DTD/svg10.dtd">
<svg version="1.0" xmlns="http://www.w3.org/2000/svg"
 width="648.000000pt" height="648.000000pt" viewBox="0 0 648.000000 648.000000"
 preserveAspectRatio="xMidYMid meet">
<metadata>
Created by potrace 1.14, written by Peter Selinger 2001-2017
</metadata>
<g transform="translate(0.000000,648.000000) scale(0.100000,-0.100000)"
fill="#000000" stroke="none">
<path d="M3157 6474 c-1 -1 -54 -4 -117 -8 -63 -3 -124 -8 -135 -10 -11 -2
-51 -7 -90 -11 -38 -4 -72 -8 -75 -10 -3 -2 -23 -6 -45 -9 -69 -11 -93 -16
-162 -32 -871 -199 -1616 -741 -2075 -1509 -181 -302 -335 -722 -393 -1067 -3
-18 -10 -58 -15 -88 -45 -264 -48 -661 -9 -945 154 -1115 916 -2096 1964
-2530 182 -76 499 -171 630 -189 22 -3 51 -8 65 -11 32 -6 99 -17 130 -20 14
-1 63 -6 110 -11 106 -11 529 -12 630 -1 181 19 341 51 575 114 236 64 457
158 726 308 81 46 177 121 167 130 -2 2 -67 6 -145 9 -149 7 -178 10 -308 27
-44 6 -96 13 -115 15 -72 9 -318 74 -410 107 -381 139 -611 284 -906 573 -169
167 -263 283 -371 464 -241 403 -358 858 -356 1390 0 257 17 407 78 694 23
105 101 319 164 445 144 292 366 572 641 810 73 62 298 221 314 221 4 0 36 18
72 40 36 22 67 40 69 40 2 0 54 24 117 53 298 141 586 218 908 243 41 3 178 5
303 5 l229 0 -52 47 c-140 127 -502 350 -710 437 -36 15 -78 33 -95 40 -16 7
-70 28 -120 45 -49 17 -101 35 -115 40 -109 40 -434 112 -560 125 -36 4 -74 9
-84 11 -43 8 -422 24 -429 18z"/>
<path d="M4890 4819 c-25 -4 -65 -9 -90 -12 -157 -19 -370 -84 -537 -162 -345
-163 -598 -414 -759 -755 -36 -75 -95 -243 -110 -310 -4 -19 -8 -37 -9 -40 -1
-5 -11 -59 -22 -120 -19 -108 -26 -427 -10 -495 2 -11 8 -42 11 -68 24 -160
98 -384 178 -534 162 -305 418 -551 722 -693 163 -77 329 -127 477 -145 30 -3
68 -9 84 -12 38 -6 350 -6 390 1 17 2 55 8 85 11 169 20 343 73 525 161 245
118 327 184 391 319 219 466 311 1153 230 1725 -2 14 -7 48 -11 75 -11 87 -76
367 -101 444 -41 123 -75 159 -269 286 -217 142 -520 267 -720 299 -16 2 -63
10 -103 16 -84 14 -285 19 -352 9z"/>
</g>
</svg>
