<?xml version="1.0" standalone="no"?>
<!DOCTYPE svg PUBLIC "-//W3C//DTD SVG 20010904//EN"
 "http://www.w3.org/TR/2001/REC-SVG-20010904/DTD/svg10.dtd">
<svg version="1.0" xmlns="http://www.w3.org/2000/svg"
 width="960.000000pt" height="960.000000pt" viewBox="0 0 960.000000 960.000000"
 preserveAspectRatio="xMidYMid meet">
<metadata>
Created by potrace 1.14, written by Peter Selinger 2001-2017
</metadata>
<g transform="translate(0.000000,960.000000) scale(0.100000,-0.100000)"
fill="#000000" stroke="none">
<path d="M4637 7204 c-1 -1 -38 -5 -81 -9 -43 -4 -88 -9 -100 -11 -12 -2 -34
-6 -51 -9 -54 -7 -134 -24 -198 -41 -34 -9 -66 -17 -72 -18 -5 -1 -16 -5 -22
-9 -7 -5 -13 -6 -13 -3 0 3 -16 -2 -35 -10 -19 -8 -37 -14 -40 -13 -7 1 -153
-56 -205 -79 -19 -9 -37 -17 -40 -17 -49 -9 -431 -243 -480 -295 -3 -3 -27
-23 -55 -45 -68 -54 -269 -258 -326 -331 -109 -139 -266 -387 -293 -464 -5
-14 -12 -29 -16 -35 -35 -46 -153 -393 -174 -510 -2 -11 -8 -47 -15 -80 -40
-219 -47 -560 -16 -755 34 -212 46 -266 98 -420 17 -52 32 -97 32 -100 7 -25
68 -166 82 -187 8 -12 12 -23 8 -23 -4 0 -3 -6 2 -12 6 -7 27 -44 48 -83 180
-336 460 -641 791 -861 115 -77 295 -173 399 -214 33 -13 65 -27 70 -31 6 -4
22 -10 35 -13 14 -3 52 -15 85 -26 33 -12 67 -23 75 -25 8 -2 44 -11 80 -20
36 -9 79 -18 95 -21 17 -3 37 -7 45 -10 8 -3 35 -8 60 -10 25 -3 56 -7 70 -10
86 -17 411 -24 530 -11 112 13 146 18 197 28 29 6 65 12 80 14 16 2 28 4 28 5
0 1 9 3 20 5 11 2 67 18 125 35 101 29 122 37 235 82 60 25 278 130 285 139 3
3 20 12 38 20 17 8 31 17 30 21 -3 8 -125 135 -155 161 -20 17 -23 16 -104
-26 -75 -38 -123 -60 -216 -99 -34 -14 -31 -13 -68 -23 -16 -4 -34 -11 -40
-15 -8 -6 -39 -16 -80 -25 -5 -2 -37 -10 -70 -18 -180 -47 -311 -62 -535 -61
-177 0 -260 7 -366 28 -12 2 -37 7 -55 10 -37 6 -43 8 -134 31 -76 20 -75 20
-108 33 -16 7 -32 12 -37 12 -37 0 -434 194 -470 230 -11 11 -70 50 -75 50 -4
0 -12 6 -19 13 -7 6 -28 23 -47 37 -116 87 -295 267 -396 400 -121 160 -263
415 -299 535 -1 6 -12 35 -23 65 -21 56 -65 210 -75 265 -3 17 -10 55 -16 85
-22 115 -28 198 -29 365 0 116 3 201 9 215 1 3 2 9 1 14 -2 11 17 133 33 219
16 78 42 172 75 267 31 93 120 291 134 301 5 3 8 9 7 13 -4 18 164 271 240
360 100 118 353 356 379 356 4 0 16 8 27 18 28 26 129 92 142 92 6 0 12 4 14
9 6 16 304 161 332 161 7 0 16 3 20 7 3 4 12 8 19 10 7 1 39 12 72 23 33 11
69 23 80 25 11 2 20 4 20 5 0 3 65 18 110 25 17 3 38 8 48 11 17 5 55 12 112
19 53 6 238 18 290 17 50 0 207 -10 255 -16 29 -4 133 -19 140 -21 3 -1 32 -7
65 -15 72 -16 60 -13 115 -30 25 -7 47 -14 50 -15 122 -33 323 -122 477 -211
l32 -19 86 87 c47 48 85 89 85 92 0 6 -149 96 -160 96 -4 0 -10 3 -12 8 -2 6
-89 52 -108 57 -3 1 -27 12 -55 24 -89 41 -291 114 -347 125 -13 3 -59 14
-103 24 -159 39 -297 54 -523 56 -84 1 -154 1 -155 0z"/>
<path d="M4646 6693 c-1 -2 -23 -5 -47 -8 -50 -5 -77 -9 -134 -20 -22 -4 -47
-9 -55 -10 -111 -20 -279 -79 -426 -151 -198 -95 -337 -192 -498 -351 -185
-180 -315 -370 -415 -604 -47 -111 -104 -288 -117 -364 -1 -11 -8 -48 -14 -83
-17 -96 -23 -176 -23 -312 0 -115 2 -148 19 -280 10 -76 71 -304 105 -392 190
-486 579 -883 1054 -1076 84 -33 128 -49 175 -62 25 -7 56 -16 70 -20 57 -18
215 -45 320 -55 57 -6 269 -6 295 -1 11 2 51 7 90 10 103 10 337 68 433 108
15 6 32 12 37 13 6 2 45 19 88 40 l78 38 -33 35 c-18 19 -52 55 -76 79 l-43
45 -82 -32 c-45 -17 -92 -36 -104 -41 -23 -8 -132 -38 -168 -45 -11 -2 -31 -6
-45 -9 -14 -3 -41 -7 -60 -10 -19 -3 -51 -8 -70 -11 -88 -14 -370 -6 -465 12
-11 2 -36 7 -55 10 -43 7 -241 64 -255 72 -5 4 -15 7 -22 8 -31 5 -247 118
-323 170 -156 105 -334 272 -400 373 -8 13 -20 29 -27 36 -49 51 -184 302
-213 395 -7 25 -17 50 -20 55 -13 19 -59 210 -74 305 -14 93 -16 413 -2 469 3
12 7 42 10 65 3 22 12 62 20 89 8 26 12 47 10 47 -10 0 86 248 132 341 55 108
153 256 221 331 61 67 178 181 208 203 16 11 33 25 39 30 54 52 272 177 391
227 72 29 225 77 265 83 25 4 84 15 100 20 8 2 37 6 64 10 27 3 53 8 58 11 4
3 8 0 8 -6 0 -7 6 -8 18 -2 32 16 342 1 432 -21 8 -2 33 -8 55 -12 22 -5 42
-10 45 -10 77 -18 205 -64 300 -108 l74 -34 77 76 c43 42 75 79 73 82 -5 9
-164 85 -246 118 -68 27 -223 75 -274 85 -10 2 -30 7 -44 10 -29 6 -86 15
-150 23 -52 6 -378 11 -384 6z"/>
<path d="M6277 6528 l-88 -89 33 -26 c45 -37 195 -190 227 -233 14 -19 34 -44
44 -55 66 -72 202 -301 265 -445 18 -41 37 -82 41 -90 8 -15 67 -199 76 -237
11 -46 44 -202 49 -234 26 -171 27 -480 1 -634 -15 -89 -18 -107 -29 -162 -52
-257 -192 -563 -376 -823 -14 -19 -30 -40 -37 -47 -7 -8 -29 -34 -50 -60 -50
-60 -164 -175 -236 -237 -31 -27 -57 -52 -57 -55 0 -9 159 -171 168 -171 24 0
251 224 337 333 17 21 42 52 57 70 15 18 28 35 28 39 0 4 6 13 13 20 23 25 57
77 57 88 0 5 4 10 9 10 5 0 16 15 25 33 9 17 26 48 38 67 37 61 117 228 147
303 15 39 32 81 36 92 4 11 9 25 10 30 2 6 14 47 29 92 14 46 28 93 30 105 2
13 9 46 15 73 14 64 20 100 27 150 3 22 7 51 10 65 25 143 22 441 -5 635 -15
101 -55 292 -71 330 -4 11 -18 54 -31 95 -20 68 -32 97 -74 195 -85 196 -195
378 -335 555 -56 71 -215 240 -270 286 l-25 22 -88 -90z"/>
<path d="M5434 5997 l-99 -102 -1 -290 c0 -159 3 -297 7 -305 12 -25 236 -244
256 -250 14 -5 518 -5 568 -1 9 1 13 153 6 192 -1 3 -133 5 -293 4 -161 0
-302 1 -313 3 -20 3 -20 10 -20 424 0 231 -2 421 -6 424 -3 2 -50 -43 -105
-99z"/>
<path d="M4709 5246 c-1 -1 -2 -45 -3 -98 -2 -80 1 -97 13 -100 9 -2 150 -3
313 -3 260 1 297 -1 300 -15 2 -8 3 -334 3 -723 l-1 -708 103 -105 c57 -58
104 -99 104 -92 1 7 2 365 3 796 l1 782 -133 133 -132 132 -285 1 c-157 0
-285 0 -286 0z"/>
</g>
</svg>
